#format: frame checksums
#version: 1
#hash: MD5
#tb 0: 1001/30000
#stream#, dts,        pts, duration,     size, hash
0,          0,          0,        1,   152064, b208eac12f0ae74a812bc9e314bdfac7
0,          1,          1,        1,   152064, ebb2259451c3acf3ad6379d1f4092efb
0,          2,          2,        1,   152064, 33de46060afd14aa359b7bd0d9ff1be8
0,          3,          3,        1,   152064, 33de46060afd14aa359b7bd0d9ff1be8
0,          4,          4,        1,   152064, 5d087d8df10fd406d59172710ea0341a
0,          5,          5,        1,   152064, 3570ed7fb90ac9b5335b97adf0539e94
0,          6,          6,        1,   152064, 68a8c56b889a3befc75c9ec4293c7fda
0,          7,          7,        1,   152064, f871f7c0456f644cfb0ec896132a097f
0,          8,          8,        1,   152064, 14e939bfeb2b878e0782a7ce68ecd214
0,          9,          9,        1,   152064, bd3e97881ebece0f876d46d067c6a7ff
0,         10,         10,        1,   152064, a20529c091ef3e68a901c574371224b3
0,         11,         11,        1,   152064, 5253f16c8b0329d33d38d275124487fb
0,         12,         12,        1,   152064, c9c2f7d8835e620709a53ff8adfe72bf
0,         13,         13,        1,   152064, dc8f1df0d7ab8e4f9daf2ccfd96de855
0,         14,         14,        1,   152064, d09d43208d4de7f81d54f48cff310b6f
0,         15,         15,        1,   152064, 0dcf7212075c1f15219690ad6ffe2940
0,         16,         16,        1,   152064, 3b52e3eb4f972318c6912dd29a95dcf3
0,         17,         17,        1,   152064, aa1414343067749fbd743ace93553492
0,         18,         18,        1,   152064, 6951cb7a78e0a03f9a3f6264084de6dc
0,         19,         19,        1,   152064, 5324f2f03c4d5fe35446561af654e9ec
0,         20,         20,        1,   152064, dff11b046a02ca34c6b1aecc857632ec
0,         21,         21,        1,   152064, 971182c013c1524d4864fd946b8c1550
0,         22,         22,        1,   152064, 3306f1dcd5760ba92dd9cec8bfc21b08
0,         23,         23,        1,   152064, f1f7b13c33332fece576b4d175f91832
0,         24,         24,        1,   152064, 9e66573fbfe847149eb32e8a9c242c18
